<svg aria-hidden="true" style="width:0;height:0;position:absolute;overflow:hidden" xmlns="http://www.w3.org/2000/svg"><defs><symbol id="icon-brightness-contrast" viewBox="0 0 32 32"><path d="M16 8a8 8 0 1 0 0 16 8 8 0 0 0 0-16zm0 13V11c2.757 0 5 2.243 5 5s-2.243 5-5 5zm0 5a2 2 0 0 1 2 2v2a2 2 0 1 1-4 0v-2a2 2 0 0 1 2-2zm0-20a2 2 0 0 1-2-2V2a2 2 0 1 1 4 0v2a2 2 0 0 1-2 2zm14 8a2 2 0 1 1 0 4h-2a2 2 0 1 1 0-4h2zM6 16a2 2 0 0 1-2 2H2a2 2 0 1 1 0-4h2a2 2 0 0 1 2 2zm19.899 7.071 1.414 1.414a2 2 0 1 1-2.828 2.828l-1.414-1.414a2 2 0 1 1 2.828-2.828zM6.101 8.929 4.687 7.515a2 2 0 1 1 2.828-2.828l1.414 1.414a2 2 0 1 1-2.828 2.828zm19.798 0a2 2 0 1 1-2.828-2.828l1.414-1.414a2 2 0 1 1 2.828 2.828l-1.414 1.414zM6.101 23.071a2 2 0 1 1 2.828 2.828l-1.414 1.414a2 2 0 1 1-2.828-2.828l1.414-1.414z"/><symbol id="icon-search" viewBox="0 0 12 12"><path d="M1.509 1.509A5.118 5.118 0 0 1 5.152 0c1.376 0 2.67.536 3.643 1.509a5.118 5.118 0 0 1 1.51 3.643 5.114 5.114 0 0 1-1.27 3.386l2.862 2.861a.352.352 0 0 1-.498.498L8.538 9.036a5.114 5.114 0 0 1-3.386 1.268A5.118 5.118 0 0 1 1.51 8.795 5.118 5.118 0 0 1 0 5.152c0-1.376.536-2.67 1.509-3.643Zm.498 6.789a4.453 4.453 0 0 0 6.29 0 4.453 4.453 0 0 0 0-6.291A4.434 4.434 0 0 0 5.152.706a4.435 4.435 0 0 0-3.145 1.3 4.453 4.453 0 0 0 0 6.292Z" fill="#939393"/><symbol id="icon-ticket1" viewBox="0 0 44 32"><path d="M4.91 1.27H0v29.46h4.91V1.27zM17.26 1.27h-4.91v29.46h4.91V1.27zM24.699 1.27h-4.91v29.46h4.91V1.27zM44.19 1.27h-7.291v29.46h7.291V1.27zM9.82 1.27H7.439v29.46H9.82V1.27zM29.46 1.27h-2.381v29.46h2.381V1.27zM34.37 1.27h-2.381v29.46h2.381V1.27z"/></symbol><symbol id="icon-brightness-contrast" viewBox="0 0 32 32"><path d="M16 8a8 8 0 1 0 0 16 8 8 0 0 0 0-16zm0 13V11c2.757 0 5 2.243 5 5s-2.243 5-5 5zm0 5a2 2 0 0 1 2 2v2a2 2 0 1 1-4 0v-2a2 2 0 0 1 2-2zm0-20a2 2 0 0 1-2-2V2a2 2 0 1 1 4 0v2a2 2 0 0 1-2 2zm14 8a2 2 0 1 1 0 4h-2a2 2 0 1 1 0-4h2zM6 16a2 2 0 0 1-2 2H2a2 2 0 1 1 0-4h2a2 2 0 0 1 2 2zm19.899 7.071 1.414 1.414a2 2 0 1 1-2.828 2.828l-1.414-1.414a2 2 0 1 1 2.828-2.828zM6.101 8.929 4.687 7.515a2 2 0 1 1 2.828-2.828l1.414 1.414a2 2 0 1 1-2.828 2.828zm19.798 0a2 2 0 1 1-2.828-2.828l1.414-1.414a2 2 0 1 1 2.828 2.828l-1.414 1.414zM6.101 23.071a2 2 0 1 1 2.828 2.828l-1.414 1.414a2 2 0 1 1-2.828-2.828l1.414-1.414z"/><symbol id="logo-preloader" viewBox="0 0 60 31"><path d="M18.595 23.27c-.558-1.552-1.707-2.328-3.446-2.329H14.6v9.572h.549c1.344 0 2.336-.53 2.977-1.59.54-.904.809-2.055.809-3.453-.002-.83-.115-1.564-.34-2.2ZM9.177 23.384c.558 1.552 1.707 2.328 3.445 2.328h.55V16.14h-.55c-1.344 0-2.336.53-2.976 1.59-.538.904-.807 2.055-.808 3.453 0 .83.113 1.564.339 2.201ZM.043.854h7.303v2.535H2.664v1.267h3.89v2.406h-3.89v1.282h4.682v2.535H.043V.854ZM11.018.841h9.45l-4.725 10.241L11.018.842Zm4.725 8.974 3.903-8.441h-7.792l3.889 8.44ZM24.241.853h7.303v2.535h-4.681v1.268h3.889V7.06h-3.89v1.282h4.682v2.535H24.24V.853ZM36.038 10.864V.84h.562l7 6.813V.841h.533v10.025l-8.095-.002ZM51.782 10.878v-7.49h-3.789V.853h8.095v2.535H52.3v7.49h-.518ZM4.35 18.138c.633 0 1.137.096 1.512.288a2.515 2.515 0 0 1 1.411 2.305c.003.461-.127.913-.374 1.303a2.66 2.66 0 0 1-1.023.944c.52.183.975.513 1.31.95.35.432.538.972.534 1.527.003.485-.129.962-.382 1.376a2.778 2.778 0 0 1-1.015.986c-.222.12-.46.207-.706.26-.26.057-.605.086-1.037.086H.143V18.138H4.35ZM21.238 27.436c-.754-.658-1.126-1.645-1.116-2.96h2.348c-.01.547.153.965.49 1.253.335.288.806.432 1.41.432.5 0 .894-.082 1.182-.245a.805.805 0 0 0 .432-.749c0-.279-.146-.48-.44-.605-.279-.12-.571-.21-.87-.267a49 49 0 0 0-.534-.096 11.558 11.558 0 0 1-1.915-.528 3.34 3.34 0 0 1-1.354-.936c-.365-.422-.548-.98-.548-1.67 0-.692.183-1.28.548-1.765a3.292 3.292 0 0 1 1.462-1.088 5.396 5.396 0 0 1 1.995-.36c.873 0 1.63.163 2.268.49a3.53 3.53 0 0 1 1.505 1.484c.17.28.282.59.332.914.038.284.057.57.057.857h-2.348c0-.518-.139-.9-.417-1.145-.279-.245-.71-.367-1.297-.367-.47 0-.835.081-1.094.245-.26.163-.39.384-.39.662 0 .307.174.533.52.677a7.78 7.78 0 0 0 1.31.39c.864.172 1.539.338 2.024.496.489.161.925.453 1.26.843.355.403.533.97.533 1.7 0 .69-.192 1.286-.576 1.785-.384.5-.89.882-1.52 1.146a5.212 5.212 0 0 1-2.038.396c-1.392-.002-2.465-.332-3.22-.99ZM34.497 28.163v-7.49h-3.788v-2.535h8.095v2.535h-3.789v7.49h-.518ZM41.526 18.138h7.303v2.535h-4.681v1.268h3.889v2.405h-3.89v1.282h4.682v2.535h-7.303V18.138ZM59.646 28.163H51.94V18.138h3.903c.835 0 1.517.149 2.045.446.505.275.924.684 1.21 1.181.29.504.439 1.076.432 1.657a3.18 3.18 0 0 1-.691 2.01 3.256 3.256 0 0 1-1.743 1.173l2.55 3.558Zm-7.174-9.146v5.17h3.702l-3.702-5.17Zm0 8.613h6.165l-2.103-2.924-.446.014h-3.616v2.91Zm.375-8.96 3.918 5.474a2.755 2.755 0 0 0 1.599-.965c.416-.49.64-1.114.633-1.757a2.746 2.746 0 0 0-.389-1.44 2.555 2.555 0 0 0-1.094-.994c-.423-.212-.975-.317-1.657-.317h-3.01Z" fill="#fff"/></symbol></symbol></symbol></symbol></defs></svg>